<svg width="18" height="18" viewBox="0 0 18 18" fill="none" xmlns="http://www.w3.org/2000/svg">
<path d="M12.75 2.25C12.75 1.83525 12.414 1.5 12 1.5C11.586 1.5 11.25 1.83525 11.25 2.25H6.75C6.75 1.83525 6.414 1.5 6 1.5C5.586 1.5 5.25 1.83525 5.25 2.25C3.18225 2.25 1.5 3.93225 1.5 6V12.75C1.5 14.8177 3.18225 16.5 5.25 16.5H12.75C14.8177 16.5 16.5 14.8177 16.5 12.75V6C16.5 3.93225 14.8177 2.25 12.75 2.25ZM5.25 3.75V4.5C5.25 4.91475 5.586 5.25 6 5.25C6.414 5.25 6.75 4.91475 6.75 4.5V3.75H11.25V4.5C11.25 4.91475 11.586 5.25 12 5.25C12.414 5.25 12.75 4.91475 12.75 4.5V3.75C13.9905 3.75 15 4.7595 15 6H3C3 4.7595 4.0095 3.75 5.25 3.75ZM12.75 15H5.25C4.0095 15 3 13.9905 3 12.75V7.5H15V12.75C15 13.9905 13.9905 15 12.75 15ZM12.75 9.75C12.75 10.164 12.414 10.5 12 10.5C11.586 10.5 11.25 10.164 11.25 9.75C11.25 9.336 11.586 9 12 9C12.414 9 12.75 9.336 12.75 9.75ZM9.75 9.75C9.75 10.164 9.414 10.5 9 10.5C8.586 10.5 8.25 10.164 8.25 9.75C8.25 9.336 8.586 9 9 9C9.414 9 9.75 9.336 9.75 9.75ZM6.75 9.75C6.75 10.164 6.414 10.5 6 10.5C5.586 10.5 5.25 10.164 5.25 9.75C5.25 9.336 5.586 9 6 9C6.414 9 6.75 9.336 6.75 9.75ZM12.75 12.75C12.75 13.164 12.414 13.5 12 13.5C11.586 13.5 11.25 13.164 11.25 12.75C11.25 12.336 11.586 12 12 12C12.414 12 12.75 12.336 12.75 12.75ZM9.75 12.75C9.75 13.164 9.414 13.5 9 13.5C8.586 13.5 8.25 13.164 8.25 12.75C8.25 12.336 8.586 12 9 12C9.414 12 9.75 12.336 9.75 12.75ZM6.75 12.75C6.75 13.164 6.414 13.5 6 13.5C5.586 13.5 5.25 13.164 5.25 12.75C5.25 12.336 5.586 12 6 12C6.414 12 6.75 12.336 6.75 12.75Z" fill="#12121D"/>
</svg>
