<svg width="28" height="25" viewBox="0 0 28 25" fill="none" xmlns="http://www.w3.org/2000/svg">
<g filter="url(#filter0_d_801_2737)">
<path fill-rule="evenodd" clip-rule="evenodd" d="M5.25 6.0298C5.25 3.3293 7.61914 1.25 10.4 1.25C11.8335 1.25 13.0948 1.92214 14 2.79183C14.9052 1.92214 16.1665 1.25 17.6 1.25C20.3809 1.25 22.75 3.3293 22.75 6.0298C22.75 7.87967 21.9611 9.50644 20.8682 10.8815C19.7771 12.2543 18.35 13.4193 16.9835 14.366C16.4615 14.7276 15.9335 15.0611 15.4503 15.3072C14.9965 15.5383 14.4747 15.75 14 15.75C13.5253 15.75 13.0035 15.5383 12.5497 15.3072C12.0665 15.0611 11.5385 14.7276 11.0165 14.366C9.65005 13.4193 8.22287 12.2543 7.13182 10.8815C6.03888 9.50644 5.25 7.87967 5.25 6.0298ZM10.4 2.75C8.32075 2.75 6.75 4.2791 6.75 6.0298C6.75 7.43329 7.34579 8.74 8.30609 9.94822C9.26828 11.1588 10.5629 12.2269 11.8707 13.133C12.3656 13.4758 12.8317 13.7675 13.2305 13.9706C13.6586 14.1886 13.9067 14.25 14 14.25C14.0933 14.25 14.3414 14.1886 14.7695 13.9706C15.1683 13.7675 15.6344 13.4758 16.1293 13.133C17.4371 12.2269 18.7317 11.1588 19.6939 9.94822C20.6542 8.74 21.25 7.43329 21.25 6.0298C21.25 4.2791 19.6792 2.75 17.6 2.75C16.4058 2.75 15.2908 3.46342 14.5946 4.36892C14.4526 4.55356 14.2329 4.66176 14 4.66176C13.7671 4.66176 13.5474 4.55356 13.4054 4.36892C12.7092 3.46342 11.5942 2.75 10.4 2.75Z" fill="#12121D"/>
<path fill-rule="evenodd" clip-rule="evenodd" d="M5.25 6.0298C5.25 3.3293 7.61914 1.25 10.4 1.25C11.8335 1.25 13.0948 1.92214 14 2.79183C14.9052 1.92214 16.1665 1.25 17.6 1.25C20.3809 1.25 22.75 3.3293 22.75 6.0298C22.75 7.87967 21.9611 9.50644 20.8682 10.8815C19.7771 12.2543 18.35 13.4193 16.9835 14.366C16.4615 14.7276 15.9335 15.0611 15.4503 15.3072C14.9965 15.5383 14.4747 15.75 14 15.75C13.5253 15.75 13.0035 15.5383 12.5497 15.3072C12.0665 15.0611 11.5385 14.7276 11.0165 14.366C9.65005 13.4193 8.22287 12.2543 7.13182 10.8815C6.03888 9.50644 5.25 7.87967 5.25 6.0298ZM10.4 2.75C8.32075 2.75 6.75 4.2791 6.75 6.0298C6.75 7.43329 7.34579 8.74 8.30609 9.94822C9.26828 11.1588 10.5629 12.2269 11.8707 13.133C12.3656 13.4758 12.8317 13.7675 13.2305 13.9706C13.6586 14.1886 13.9067 14.25 14 14.25C14.0933 14.25 14.3414 14.1886 14.7695 13.9706C15.1683 13.7675 15.6344 13.4758 16.1293 13.133C17.4371 12.2269 18.7317 11.1588 19.6939 9.94822C20.6542 8.74 21.25 7.43329 21.25 6.0298C21.25 4.2791 19.6792 2.75 17.6 2.75C16.4058 2.75 15.2908 3.46342 14.5946 4.36892C14.4526 4.55356 14.2329 4.66176 14 4.66176C13.7671 4.66176 13.5474 4.55356 13.4054 4.36892C12.7092 3.46342 11.5942 2.75 10.4 2.75Z" stroke="black" stroke-linecap="round" stroke-linejoin="round"/>
</g>
<defs>
<filter id="filter0_d_801_2737" x="0.75" y="0.75" width="26.5" height="23.5" filterUnits="userSpaceOnUse" color-interpolation-filters="sRGB">
<feFlood flood-opacity="0" result="BackgroundImageFix"/>
<feColorMatrix in="SourceAlpha" type="matrix" values="0 0 0 0 0 0 0 0 0 0 0 0 0 0 0 0 0 0 127 0" result="hardAlpha"/>
<feOffset dy="4"/>
<feGaussianBlur stdDeviation="2"/>
<feComposite in2="hardAlpha" operator="out"/>
<feColorMatrix type="matrix" values="0 0 0 0 0 0 0 0 0 0 0 0 0 0 0 0 0 0 0.25 0"/>
<feBlend mode="normal" in2="BackgroundImageFix" result="effect1_dropShadow_801_2737"/>
<feBlend mode="normal" in="SourceGraphic" in2="effect1_dropShadow_801_2737" result="shape"/>
</filter>
</defs>
</svg>
