<svg width="28" height="29" viewBox="0 0 28 29" fill="none" xmlns="http://www.w3.org/2000/svg">
<g filter="url(#filter0_d_57_964)">
<path fill-rule="evenodd" clip-rule="evenodd" d="M5.25 10.0298C5.25 7.3293 7.61914 5.25 10.4 5.25C11.8335 5.25 13.0948 5.92214 14 6.79183C14.9052 5.92214 16.1665 5.25 17.6 5.25C20.3809 5.25 22.75 7.3293 22.75 10.0298C22.75 11.8797 21.9611 13.5064 20.8682 14.8815C19.7771 16.2543 18.35 17.4193 16.9835 18.366C16.4615 18.7276 15.9335 19.0611 15.4503 19.3072C14.9965 19.5383 14.4747 19.75 14 19.75C13.5253 19.75 13.0035 19.5383 12.5497 19.3072C12.0665 19.0611 11.5385 18.7276 11.0165 18.366C9.65005 17.4193 8.22287 16.2543 7.13182 14.8815C6.03888 13.5064 5.25 11.8797 5.25 10.0298ZM10.4 6.75C8.32075 6.75 6.75 8.2791 6.75 10.0298C6.75 11.4333 7.34579 12.74 8.30609 13.9482C9.26828 15.1588 10.5629 16.2269 11.8707 17.133C12.3656 17.4758 12.8317 17.7675 13.2305 17.9706C13.6586 18.1886 13.9067 18.25 14 18.25C14.0933 18.25 14.3414 18.1886 14.7695 17.9706C15.1683 17.7675 15.6344 17.4758 16.1293 17.133C17.4371 16.2269 18.7317 15.1588 19.6939 13.9482C20.6542 12.74 21.25 11.4333 21.25 10.0298C21.25 8.2791 19.6792 6.75 17.6 6.75C16.4058 6.75 15.2908 7.46342 14.5946 8.36892C14.4526 8.55356 14.2329 8.66176 14 8.66176C13.7671 8.66176 13.5474 8.55356 13.4054 8.36892C12.7092 7.46342 11.5942 6.75 10.4 6.75Z" fill="#12121D"/>
<path fill-rule="evenodd" clip-rule="evenodd" d="M5.25 10.0298C5.25 7.3293 7.61914 5.25 10.4 5.25C11.8335 5.25 13.0948 5.92214 14 6.79183C14.9052 5.92214 16.1665 5.25 17.6 5.25C20.3809 5.25 22.75 7.3293 22.75 10.0298C22.75 11.8797 21.9611 13.5064 20.8682 14.8815C19.7771 16.2543 18.35 17.4193 16.9835 18.366C16.4615 18.7276 15.9335 19.0611 15.4503 19.3072C14.9965 19.5383 14.4747 19.75 14 19.75C13.5253 19.75 13.0035 19.5383 12.5497 19.3072C12.0665 19.0611 11.5385 18.7276 11.0165 18.366C9.65005 17.4193 8.22287 16.2543 7.13182 14.8815C6.03888 13.5064 5.25 11.8797 5.25 10.0298ZM10.4 6.75C8.32075 6.75 6.75 8.2791 6.75 10.0298C6.75 11.4333 7.34579 12.74 8.30609 13.9482C9.26828 15.1588 10.5629 16.2269 11.8707 17.133C12.3656 17.4758 12.8317 17.7675 13.2305 17.9706C13.6586 18.1886 13.9067 18.25 14 18.25C14.0933 18.25 14.3414 18.1886 14.7695 17.9706C15.1683 17.7675 15.6344 17.4758 16.1293 17.133C17.4371 16.2269 18.7317 15.1588 19.6939 13.9482C20.6542 12.74 21.25 11.4333 21.25 10.0298C21.25 8.2791 19.6792 6.75 17.6 6.75C16.4058 6.75 15.2908 7.46342 14.5946 8.36892C14.4526 8.55356 14.2329 8.66176 14 8.66176C13.7671 8.66176 13.5474 8.55356 13.4054 8.36892C12.7092 7.46342 11.5942 6.75 10.4 6.75Z" stroke="black" stroke-linecap="round" stroke-linejoin="round"/>
</g>
<defs>
<filter id="filter0_d_57_964" x="0.75" y="4.75" width="26.5" height="23.5" filterUnits="userSpaceOnUse" color-interpolation-filters="sRGB">
<feFlood flood-opacity="0" result="BackgroundImageFix"/>
<feColorMatrix in="SourceAlpha" type="matrix" values="0 0 0 0 0 0 0 0 0 0 0 0 0 0 0 0 0 0 127 0" result="hardAlpha"/>
<feOffset dy="4"/>
<feGaussianBlur stdDeviation="2"/>
<feComposite in2="hardAlpha" operator="out"/>
<feColorMatrix type="matrix" values="0 0 0 0 0 0 0 0 0 0 0 0 0 0 0 0 0 0 0.25 0"/>
<feBlend mode="normal" in2="BackgroundImageFix" result="effect1_dropShadow_57_964"/>
<feBlend mode="normal" in="SourceGraphic" in2="effect1_dropShadow_57_964" result="shape"/>
</filter>
</defs>
</svg>
