<svg width="22" height="22" viewBox="0 0 22 22" fill="none" xmlns="http://www.w3.org/2000/svg">
<path d="M13.7614 14.4977C12.6447 14.4977 11.7361 15.4062 11.7361 16.5229C11.7361 17.6396 12.6447 18.5482 13.7614 18.5482C14.8781 18.5482 15.7867 17.6396 15.7867 16.5229C15.7867 15.4062 14.8781 14.4977 13.7614 14.4977ZM13.7614 17.2592C13.3555 17.2592 13.0252 16.9289 13.0252 16.523C13.0252 16.117 13.3555 15.7868 13.7614 15.7868C14.1673 15.7868 14.4976 16.117 14.4976 16.523C14.4976 16.9289 14.1673 17.2592 13.7614 17.2592Z" fill="#12121D"/>
<path d="M10.2637 11.0001C10.2637 9.88338 9.35514 8.97485 8.23842 8.97485C7.12171 8.97485 6.21313 9.88338 6.21313 11.0001C6.21313 12.1168 7.12167 13.0253 8.23838 13.0253C9.3551 13.0253 10.2637 12.1168 10.2637 11.0001ZM7.5022 11.0001C7.5022 10.5942 7.83246 10.2639 8.23838 10.2639C8.64431 10.2639 8.97456 10.5942 8.97456 11.0001C8.97456 11.406 8.64431 11.7363 8.23838 11.7363C7.83246 11.7363 7.5022 11.406 7.5022 11.0001Z" fill="#12121D"/>
<path d="M13.5548 10.2256C13.3304 10.0017 13.0029 10.0471 12.8234 10.327L8.36417 17.2787C8.18464 17.5586 8.22103 17.9671 8.44542 18.1909C8.6805 18.4254 9.00623 18.3556 9.17685 18.0896L13.6361 11.1379C13.8156 10.8579 13.7792 10.4495 13.5548 10.2256Z" fill="#12121D"/>
<path d="M10.072 0C9.78484 0 9.53279 0.190223 9.45317 0.466082C9.37355 0.741941 9.48647 1.03752 9.72946 1.19049C9.75403 1.20596 12.1889 2.76263 12.1889 4.78668C12.1889 5.76361 11.3941 6.55841 10.4171 6.55841C9.44019 6.55841 8.6454 5.76361 8.6454 4.78668C8.6454 4.00911 9.0625 3.5955 9.11071 3.55034C9.35769 3.35191 9.41613 3.00927 9.25839 2.73393C9.09984 2.45725 8.75493 2.34442 8.45767 2.46009C8.29048 2.52506 1.83344 5.11543 1.83344 12.3807C1.83344 17.6848 6.14861 22 11.4527 22C16.7567 22 21.0719 17.6848 21.0719 12.3807C21.0719 4.48688 13.2583 0 10.072 0V0ZM11.4527 20.7109C6.8594 20.7109 3.12245 16.974 3.12245 12.3807C3.12245 7.56233 6.35675 5.21245 7.36579 4.52873C7.35956 4.61205 7.35629 4.69803 7.35629 4.78668C7.35629 6.4744 8.72936 7.84747 10.4171 7.84747C12.1049 7.84747 13.4779 6.4744 13.4779 4.78668C13.4779 3.65552 12.9777 2.67304 12.3812 1.90352C14.0827 2.6498 19.7829 5.87 19.7829 12.3807C19.7829 16.974 16.046 20.7109 11.4527 20.7109Z" fill="#12121D"/>
</svg>
