<svg width="24" height="24" viewBox="0 0 24 24" fill="none" xmlns="http://www.w3.org/2000/svg">
<path d="M16.558 2.06738C16.414 2.09238 16.2869 2.12238 16.1769 2.15338C15.4589 2.35438 14.9128 2.97634 14.7848 3.73834L14.0639 8.06934C13.9469 8.79534 14.2249 9.52737 14.7929 9.97437C14.8659 10.0324 14.9418 10.0884 15.0658 10.2004C14.1148 12.3884 12.3849 14.1174 10.1459 15.0314C10.0769 14.9284 10.0029 14.8294 9.92593 14.7354C9.47693 14.1784 8.75698 13.9023 8.04898 14.0143L3.79385 14.6854C3.04885 14.8024 2.43996 15.3144 2.20596 16.0214C2.15496 16.1744 2.107 16.3544 2.069 16.5634C1.831 17.9034 2.20797 19.2744 3.11197 20.3274C4.05797 21.4284 5.43079 22.0364 6.87979 21.9974C15.1328 21.7754 21.774 15.1353 21.997 6.88135C21.998 6.83835 21.998 6.79434 21.998 6.75134C21.998 5.36234 21.3968 4.04936 20.3368 3.13336C19.2828 2.22136 17.905 1.83338 16.558 2.06738ZM19.0299 4.64636C19.6679 5.19736 20.0159 5.97537 19.9989 6.82837C19.8049 14.0194 14.0188 19.8054 6.82681 19.9994C5.98281 20.0214 5.18301 19.6664 4.63101 19.0244C4.21701 18.5424 3.99893 17.9654 3.99893 17.3674C3.99893 17.2194 4.01297 17.0704 4.03897 16.9204C4.05897 16.8174 4.08086 16.7284 4.10587 16.6614L8.37491 15.9954C8.41491 16.0454 8.45287 16.0974 8.49087 16.1534C9.05887 16.9884 10.089 17.2974 10.996 16.9034C13.65 15.7504 15.7468 13.6534 16.9008 11.0004C17.2948 10.0944 16.987 9.06235 16.152 8.49335L16.037 8.40039L16.7179 4.08038C16.7719 4.06539 16.832 4.05137 16.902 4.03937C17.655 3.90737 18.4319 4.12836 19.0299 4.64636Z" fill="#FCFCFC"/>
</svg>
